<svg id="visual" viewBox="0 0 960 300" width="960" height="300" xmlns="http://www.w3.org/2000/svg" xmlns:xlink="http://www.w3.org/1999/xlink" version="1.1"><rect x="0" y="0" width="960" height="300" fill="#1A1A1B"></rect><path d="M0 106L22.8 98.2C45.7 90.3 91.3 74.7 137 73.7C182.7 72.7 228.3 86.3 274 97C319.7 107.7 365.3 115.3 411.2 121.7C457 128 503 133 548.8 130.2C594.7 127.3 640.3 116.7 686 105.2C731.7 93.7 777.3 81.3 823 72.7C868.7 64 914.3 59 937.2 56.5L960 54L960 301L937.2 301C914.3 301 868.7 301 823 301C777.3 301 731.7 301 686 301C640.3 301 594.7 301 548.8 301C503 301 457 301 411.2 301C365.3 301 319.7 301 274 301C228.3 301 182.7 301 137 301C91.3 301 45.7 301 22.8 301L0 301Z" fill="#fdd835"></path><path d="M0 97L22.8 98.3C45.7 99.7 91.3 102.3 137 107.5C182.7 112.7 228.3 120.3 274 126.3C319.7 132.3 365.3 136.7 411.2 132.7C457 128.7 503 116.3 548.8 114.7C594.7 113 640.3 122 686 133.2C731.7 144.3 777.3 157.7 823 165.3C868.7 173 914.3 175 937.2 176L960 177L960 301L937.2 301C914.3 301 868.7 301 823 301C777.3 301 731.7 301 686 301C640.3 301 594.7 301 548.8 301C503 301 457 301 411.2 301C365.3 301 319.7 301 274 301C228.3 301 182.7 301 137 301C91.3 301 45.7 301 22.8 301L0 301Z" fill="#ffae39"></path><path d="M0 172L22.8 171.7C45.7 171.3 91.3 170.7 137 164.8C182.7 159 228.3 148 274 145.5C319.7 143 365.3 149 411.2 160.3C457 171.7 503 188.3 548.8 194C594.7 199.7 640.3 194.3 686 188.5C731.7 182.7 777.3 176.3 823 168.3C868.7 160.3 914.3 150.7 937.2 145.8L960 141L960 301L937.2 301C914.3 301 868.7 301 823 301C777.3 301 731.7 301 686 301C640.3 301 594.7 301 548.8 301C503 301 457 301 411.2 301C365.3 301 319.7 301 274 301C228.3 301 182.7 301 137 301C91.3 301 45.7 301 22.8 301L0 301Z" fill="#ff864a"></path><path d="M0 208L22.8 203.5C45.7 199 91.3 190 137 191.8C182.7 193.7 228.3 206.3 274 214.3C319.7 222.3 365.3 225.7 411.2 221.8C457 218 503 207 548.8 202.7C594.7 198.3 640.3 200.7 686 205.3C731.7 210 777.3 217 823 219C868.7 221 914.3 218 937.2 216.5L960 215L960 301L937.2 301C914.3 301 868.7 301 823 301C777.3 301 731.7 301 686 301C640.3 301 594.7 301 548.8 301C503 301 457 301 411.2 301C365.3 301 319.7 301 274 301C228.3 301 182.7 301 137 301C91.3 301 45.7 301 22.8 301L0 301Z" fill="#fd615f"></path><path d="M0 258L22.8 252.5C45.7 247 91.3 236 137 230.8C182.7 225.7 228.3 226.3 274 227.2C319.7 228 365.3 229 411.2 232.5C457 236 503 242 548.8 242.3C594.7 242.7 640.3 237.3 686 240.3C731.7 243.3 777.3 254.7 823 257.7C868.7 260.7 914.3 255.3 937.2 252.7L960 250L960 301L937.2 301C914.3 301 868.7 301 823 301C777.3 301 731.7 301 686 301C640.3 301 594.7 301 548.8 301C503 301 457 301 411.2 301C365.3 301 319.7 301 274 301C228.3 301 182.7 301 137 301C91.3 301 45.7 301 22.8 301L0 301Z" fill="#ec407a"></path></svg>